# xmcd
#
# Track frame offsets:
#	150
#	18964
#	31467
#	54829
#	65563
#	99833
#	137168
#	162943
#
# Disc length: 2744 seconds
#
# Revision: 1
# Processed by: cddbd v1.5.2PL0 Copyright (c) Steve Scherf et al.
# Submitted via: audiograbber 1.83.01
#
DISCID=5e0ab608
DTITLE=сталатиоу спояос циаммгс [2005] - ле валгкылема жыта
DYEAR=2005
DGENRE=
TTITLE0=ле валгкылема жыта - аутосведиаслои циа лпоуфоуйи
TTITLE1=йоййимг яаьыдиа
TTITLE2=лимояе то нглеяыла
TTITLE3=отам паифы циа лема
TTITLE4=тсиццамийг ацапг
TTITLE5=катимийг жамтасиа
TTITLE6=мостакциа
TTITLE7=Data Track
EXTD=
EXTT0=
EXTT1=
EXTT2=
EXTT3=
EXTT4=
EXTT5=
EXTT6=
EXTT7=
PLAYORDER=
